<svg xmlns="http://www.w3.org/2000/svg" viewBox="0 0 50 50"><path d="M25 49.5c13.5 0 24.5-11 24.5-24.5S38.5.5 25 .5.5 11.5.5 25s11 24.5 24.5 24.5" fill="#606364"/><g fill="#f9f9f9"><path d="M11.7 25c0-1.8 0-3.6.1-5.4 0-1.5.3-3 1.1-4.4 1.1-1.8 2.7-2.8 4.7-3.2 1.2-.2 2.4-.3 3.6-.3h7.9c1.4 0 2.8.1 4.1.5 2.6.9 4.1 2.7 4.6 5.3.2 1.2.3 2.4.3 3.7v7.9c0 1.4-.1 2.8-.5 4.1-.9 2.6-2.7 4.1-5.4 4.7-1.2.2-2.4.3-3.7.3h-7.9c-1.4 0-2.8-.1-4.1-.5-2.6-.9-4.1-2.7-4.6-5.3-.2-1.2-.3-2.4-.3-3.7.1-1.2.1-2.5.1-3.7zm24.2-.2c-.1-1 0-2.1-.1-3.1 0-1-.1-2-.2-3-.2-2.2-1.6-3.8-3.8-4.2-1.2-.2-2.4-.3-3.6-.3h-6.6c-1.1 0-2.3.1-3.4.2-1.9.3-3.2 1.4-3.8 3.3-.2.6-.3 1.3-.3 1.9-.1 2.4-.1 4.8-.1 7.2 0 1.5 0 3.1.2 4.6.2 2.3 1.5 3.8 3.8 4.2 1.2.2 2.4.3 3.6.3h6.6c1 0 2.1-.1 3.1-.2.9-.1 1.8-.4 2.6-1 1.2-1 1.7-2.3 1.8-3.8.2-2.1.2-4.1.2-6.1z"/><path d="M31.8 25c0 3.8-3 6.8-6.8 6.8s-6.8-3-6.8-6.9c0-3.7 3.1-6.7 6.9-6.7 3.7 0 6.7 3 6.7 6.8zM25 20.6c-2.4 0-4.4 2-4.4 4.4 0 2.4 2 4.4 4.4 4.4 2.4 0 4.4-2 4.4-4.4 0-2.4-2-4.4-4.4-4.4zm7.1-4.3c.9 0 1.6.7 1.6 1.6 0 .9-.7 1.6-1.6 1.6-.9 0-1.6-.7-1.6-1.6 0-.9.7-1.6 1.6-1.6z"/></g></svg>